<?xml version="1.0" encoding="UTF-8" standalone="no"?>
<svg
   xmlns:osb="http://www.openswatchbook.org/uri/2009/osb"
   xmlns:dc="http://purl.org/dc/elements/1.1/"
   xmlns:cc="http://creativecommons.org/ns#"
   xmlns:rdf="http://www.w3.org/1999/02/22-rdf-syntax-ns#"
   xmlns:svg="http://www.w3.org/2000/svg"
   xmlns="http://www.w3.org/2000/svg"
   xmlns:xlink="http://www.w3.org/1999/xlink"
   xmlns:sodipodi="http://sodipodi.sourceforge.net/DTD/sodipodi-0.dtd"
   xmlns:inkscape="http://www.inkscape.org/namespaces/inkscape"
   width="285.43628"
   height="285.04657"
   viewBox="0 0 75.521677 75.418572"
   version="1.1"
   id="svg887"
   inkscape:version="1.0.1 (3bc2e813f5, 2020-09-07)"
   sodipodi:docname="te2.svg">
  <defs
     id="defs881">
    <marker
       style="overflow:visible"
       id="marker4679"
       refX="0"
       refY="0"
       orient="auto"
       inkscape:stockid="Arrow1Lstart"
       inkscape:isstock="true">
      <path
         transform="matrix(0.8,0,0,0.8,10,0)"
         style="fill:#ff0000;fill-opacity:1;fill-rule:evenodd;stroke:#ff0000;stroke-width:1pt;stroke-opacity:1"
         d="M 0,0 5,-5 -12.5,0 5,5 Z"
         id="path4677" />
    </marker>
    <marker
       style="overflow:visible"
       id="Arrow1Lstart"
       refX="0"
       refY="0"
       orient="auto"
       inkscape:stockid="Arrow1Lstart"
       inkscape:isstock="true">
      <path
         transform="matrix(0.8,0,0,0.8,10,0)"
         style="fill-rule:evenodd;stroke:#000000;stroke-width:1pt"
         d="M 0,0 5,-5 -12.5,0 5,5 Z"
         id="path4407" />
    </marker>
    <linearGradient
       id="linearGradient3315"
       osb:paint="solid">
      <stop
         style="stop-color:#ff0000;stop-opacity:1;"
         offset="0"
         id="stop3313" />
    </linearGradient>
    <inkscape:path-effect
       effect="powerclip"
       id="path-effect2850"
       is_visible="true"
       lpeversion="1"
       inverse="true"
       flatten="false"
       hide_clip="false"
       message="Use fill-rule evenodd on &lt;b&gt;fill and stroke&lt;/b&gt; dialog if no flatten result after convert clip to paths." />
    <inkscape:path-effect
       effect="spiro"
       id="path-effect2708"
       is_visible="true"
       lpeversion="1" />
    <inkscape:path-effect
       effect="spiro"
       id="path-effect2700"
       is_visible="true"
       lpeversion="1" />
    <linearGradient
       inkscape:collect="always"
       id="linearGradient1817-5-0">
      <stop
         style="stop-color:#fae9bd;stop-opacity:1"
         offset="0"
         id="stop1828" />
      <stop
         style="stop-color:#f2bc00;stop-opacity:1"
         offset="1"
         id="stop1830" />
    </linearGradient>
    <linearGradient
       id="linearGradient1466"
       osb:paint="solid">
      <stop
         style="stop-color:#ff0000;stop-opacity:1;"
         offset="0"
         id="stop1464" />
    </linearGradient>
    <linearGradient
       inkscape:collect="always"
       xlink:href="#linearGradient1817-5-0"
       id="linearGradient1840"
       gradientUnits="userSpaceOnUse"
       x1="2.7672696"
       y1="-51.069077"
       x2="97.767265"
       y2="-51.069077"
       gradientTransform="translate(-14.429193,-7.7870737)" />
    <linearGradient
       inkscape:collect="always"
       xlink:href="#linearGradient1817-5-0"
       id="linearGradient2042"
       gradientUnits="userSpaceOnUse"
       gradientTransform="matrix(0,0.82583577,-0.82583571,0,8.9297967,-6.6601221)"
       x1="2.7672696"
       y1="-51.069077"
       x2="97.767265"
       y2="-51.069077" />
    <clipPath
       clipPathUnits="userSpaceOnUse"
       id="clipPath2846">
      <path
         style="display:none;fill:#ffffff;fill-opacity:1;stroke-width:0.0899197"
         d="m 14.213308,142.1913 c 0.29673,-0.0511 1.10601,-0.17676 1.7984,-0.27926 1.91946,-0.28419 4.18529,-0.83638 5.84478,-1.42441 0.4451,-0.15772 0.99136,-0.34962 1.21392,-0.42646 1.38369,-0.47774 4.882411,-2.28687 6.442101,-3.33111 2.728089,-1.82651 4.845878,-3.65606 7.160199,-6.18565 1.301951,-1.42307 2.116899,-2.47153 3.42479,-4.40607 1.30819,-1.935 2.841721,-4.83313 3.473371,-6.56414 0.108278,-0.29673 0.23812,-0.64067 0.288528,-0.76431 0.19911,-0.48838 0.964951,-2.87303 1.140661,-3.55184 0.598699,-2.31272 0.849749,-3.81838 1.13651,-6.81599 0.121621,-1.27135 0.0547,-4.21649 -0.136279,-5.99756 -0.166571,-1.55351 -0.532111,-3.860332 -0.69106,-4.361111 -0.0314,-0.0989 -0.109482,-0.422622 -0.173511,-0.71936 -0.349239,-1.618491 -1.30075,-4.403013 -2.074079,-6.069576 -0.626462,-1.350076 -1.345912,-2.789277 -1.595742,-3.19215 -0.437978,-0.706295 -0.489799,-0.792417 -0.648269,-1.077347 -0.4162,-0.748387 -1.674881,-2.547329 -2.54259,-3.633956 -3.739769,-4.683316 -9.51356,-9.06739 -14.39535,-10.93051 -0.46984,-0.179305 -0.93517,-0.359473 -1.03408,-0.40037 -0.69484,-0.287287 -1.69051,-0.609311 -3.19215,-1.032417 -3.59735,-1.013603 -7.36857,-1.415576 -11.4594198,-1.221462 -1.1345498,0.05384 -2.0875398,0.113159 -2.1177499,0.131834 -0.0302,0.01868 -0.4170201,0.07851 -0.8595799,0.132958 -1.7125302,0.210714 -3.2775101,0.534562 -5.39055409,1.115483 -1.44877801,0.398302 -2.33829701,0.689097 -2.97326191,0.971992 -0.2010712,0.08959 -0.3928841,0.162883 -0.4262422,0.162883 -0.03332,0 -0.7315859,0.32371 -1.5516048,0.719357 -0.820021,0.395645 -1.5052371,0.719357 -1.5227051,0.719357 -0.03969,0 -1.8392709,1.041948 -2.7429561,1.588135 -0.3709188,0.224182 -1.2326782,0.81842 -1.9150222,1.320528 -0.68235,0.50211 -1.336825,0.975267 -1.454401,1.051459 -0.117576,0.07619 -0.591128,0.485966 -1.05233,0.910609 -0.461202,0.42464 -1.073891,0.963546 -1.36154,1.197567 -0.702569,0.571604 -2.793488,2.903869 -3.793679,4.231572 -0.807103,1.07139 -0.987677,1.331206 -1.606385,2.311368 -0.179503,0.284371 -0.460806,0.72948 -0.625123,0.989121 -0.613442,0.969325 -1.183157,2.048473 -1.720856,3.259592 -0.131735,0.296728 -0.272379,0.601605 -0.312527,0.677487 -0.163642,0.30928 -0.908175,2.269202 -1.245618,3.278979 -0.849519,2.542135 -1.278769,4.434596 -1.652045,7.283498 -0.16513,1.2603 -0.200715,1.97061 -0.202724,4.04638 -0.0014,1.46661 0.04327,2.8744 0.107062,3.372 0.06022,0.46983 0.150658,1.21841 0.200967,1.66351 0.27926,2.47075 1.213646,5.92829 2.320694,8.58734 0.755655,1.815 0.960905,2.24688 1.858967,3.9115 1.101099,2.04097 3.077759,4.90846 4.431897,6.42926 2.796144,3.14027 5.786648,5.62489 9.3502072,7.76849 0.5622192,0.3382 3.6418412,1.81115 4.067642,1.94552 0.123635,0.039 0.5080442,0.178 0.8542332,0.30884 2.19522292,0.82968 2.76448592,1.00631 5.1254249,1.59028 1.36513,0.33766 4.04307,0.70728 6.0246201,0.83154 1.0022398,0.0628 5.6607996,-0.0298 6.2044596,-0.12338 z"
         id="path2848" />
    </clipPath>
    <linearGradient
       inkscape:collect="always"
       xlink:href="#linearGradient1817-5-0"
       id="linearGradient3512"
       x1="69.637085"
       y1="103.85166"
       x2="145.51903"
       y2="103.85166"
       gradientUnits="userSpaceOnUse"
       gradientTransform="matrix(0.97629725,0,0,0.97629725,-1.0662578,-209.31078)" />
    <linearGradient
       inkscape:collect="always"
       xlink:href="#linearGradient1817-5-0"
       id="linearGradient3656"
       x1="107.84265"
       y1="69.821693"
       x2="107.84265"
       y2="138.4108"
       gradientUnits="userSpaceOnUse"
       gradientTransform="matrix(0.94270537,0,0,0.94270537,6.2569084,5.8109343)" />
    <filter
       inkscape:collect="always"
       style="color-interpolation-filters:sRGB"
       id="filter5100"
       x="-0.047817349"
       width="1.0972167"
       y="-0.047535181"
       height="1.0995709">
      <feGaussianBlur
         inkscape:collect="always"
         stdDeviation="1.1446313"
         id="feGaussianBlur5102" />
    </filter>
    <filter
       inkscape:collect="always"
       style="color-interpolation-filters:sRGB"
       id="filter1692"
       x="-0.016035402"
       width="1.0320708"
       y="-0.01633363"
       height="1.0326673">
      <feGaussianBlur
         inkscape:collect="always"
         stdDeviation="0.41648604"
         id="feGaussianBlur1694" />
    </filter>
  </defs>
  <sodipodi:namedview
     id="base"
     pagecolor="#ffffff"
     bordercolor="#666666"
     borderopacity="1.0"
     inkscape:pageopacity="0.0"
     inkscape:pageshadow="2"
     inkscape:zoom="10.041752"
     inkscape:cx="110.64239"
     inkscape:cy="239.00882"
     inkscape:document-units="px"
     inkscape:current-layer="layer5"
     inkscape:document-rotation="0"
     showgrid="false"
     units="px"
     width="50px"
     scale-x="2"
     inkscape:pagecheckerboard="true"
     objecttolerance="10"
     inkscape:window-width="1920"
     inkscape:window-height="1017"
     inkscape:window-x="1912"
     inkscape:window-y="109"
     inkscape:window-maximized="1"
     showborder="true"
     inkscape:snap-smooth-nodes="true"
     inkscape:object-paths="true"
     inkscape:snap-intersection-paths="true"
     fit-margin-top="0"
     fit-margin-left="0"
     fit-margin-right="0"
     fit-margin-bottom="0"
     inkscape:snap-bbox="false"
     inkscape:bbox-nodes="false"
     inkscape:showpageshadow="false" />
  <metadata
     id="metadata884">
    <rdf:RDF>
      <cc:Work
         rdf:about="">
        <dc:format>image/svg+xml</dc:format>
        <dc:type
           rdf:resource="http://purl.org/dc/dcmitype/StillImage" />
        <dc:title></dc:title>
      </cc:Work>
    </rdf:RDF>
  </metadata>
  <g
     inkscape:groupmode="layer"
     id="layer5"
     inkscape:label="Layer 3"
     style="display:inline;opacity:1"
     transform="translate(-70.159841,-66.252609)">
    <path
       id="path3336-7"
       style="display:inline;opacity:1;fill:none;fill-opacity:1;stroke:#ff0000;stroke-width:3.57188;stroke-miterlimit:4;stroke-dasharray:none;stroke-opacity:1;filter:url(#filter5100)"
       d="M 142.1372,104.11624 A 34.294548,34.294548 0 0 1 107.84265,138.41079 34.294548,34.294548 0 0 1 73.5481,104.11624 34.294548,34.294548 0 0 1 107.84265,69.821693 34.294548,34.294548 0 0 1 142.1372,104.11624 Z"
       transform="rotate(180,107.90879,104.11624)" />
    <circle
       style="fill:none;fill-opacity:1;stroke:url(#linearGradient3512);stroke-width:2.4467;stroke-miterlimit:4;stroke-dasharray:none;stroke-opacity:1"
       id="path3336"
       cx="103.96189"
       cy="-107.92068"
       transform="rotate(90)"
       r="34.294548" />
    <path
       id="path2796-1"
       style="display:inline;opacity:1;fill:#ff0000;fill-opacity:0.98;stroke:#ff0000;stroke-width:0.721306;stroke-miterlimit:4;stroke-dasharray:none;stroke-opacity:1;filter:url(#filter1692)"
       d="m 119.96085,73.518938 c -0.014,-0.0029 -0.0285,-2.41e-4 -0.0439,0.0093 -0.0462,0.02865 -0.0644,0.379515 -0.0403,0.788067 0.0239,0.405053 0.0651,1.374497 0.0915,2.15439 l 0.0475,1.418 -0.24856,0.09664 c -0.13669,0.05302 -0.56736,0.177842 -0.95757,0.277503 -1.69524,0.43294 -4.85963,1.938046 -6.16965,2.934703 -0.17309,0.131691 -0.57361,0.413382 -0.88986,0.625803 -1.12318,0.754425 -3.20699,2.510464 -4.55683,3.840075 -1.61235,1.58818 -2.83159,3.010869 -4.34237,5.066869 -0.3643,0.49575 -0.71305,0.9208 -0.77515,0.94465 -0.10604,0.0407 -1.23929,-0.0884 -2.564186,-0.29197 -0.32146,-0.0494 -1.11045,-0.13544 -1.75338,-0.19121 -0.64293,-0.0558 -1.27488,-0.14144 -1.40457,-0.19068 -0.12969,-0.0493 -0.48804,-0.4101 -0.79633,-0.8015 -0.75077,-0.95316 -2.31312,-2.510231 -3.09749,-3.087153 -0.75305,-0.553876 -1.860805,-1.20161 -2.196243,-1.28416 -0.131207,-0.0323 -0.319154,-0.108932 -0.418063,-0.170532 -0.09891,-0.06161 -0.523759,-0.203145 -0.944129,-0.314709 -1.164997,-0.309197 -2.866187,-0.294158 -4.120164,0.03669 -0.510365,0.134657 -0.995902,0.279202 -1.079002,0.32091 -0.08311,0.04172 -0.408753,0.191376 -0.723472,0.332799 -1.583084,0.71139 -2.345592,2.202201 -2.348693,4.592485 -8.46e-4,0.65238 -0.03836,1.20909 -0.08371,1.23713 -0.08309,0.0514 -0.905994,0.20999 -2.380218,0.45889 -0.978437,0.16519 -1.116891,0.22778 -0.900721,0.40669 0.124344,0.10322 0.488492,0.12381 1.851051,0.10439 1.309579,-0.0186 1.704049,0.002 1.729611,0.0899 0.01821,0.0627 0.122438,0.43737 0.232026,0.83302 0.452448,1.63355 0.99763,2.96517 1.877923,4.58628 0.551756,1.01608 1.844555,2.931522 2.788459,4.132562 0.217173,0.27633 0.368335,0.52879 0.336413,0.5607 -0.03188,0.0319 -0.472512,0.0893 -0.979268,0.12764 -3.280151,0.24794 -5.681144,1.59526 -7.284826,4.08759 -1.30374,2.0262 -1.486233,3.71352 -0.570508,5.27152 0.294802,0.50158 1.237954,1.56187 1.734262,1.94975 0.214127,0.16736 0.389123,0.33445 0.389123,0.37103 0,0.11031 -0.428332,0.81423 -0.902272,1.48261 -0.245435,0.34614 -0.446484,0.67565 -0.446484,0.73225 0,0.0565 -0.0607,0.12653 -0.134874,0.15503 -0.07422,0.0285 -0.134877,0.15105 -0.134877,0.27285 0,0.18701 0.177274,0.0444 1.139984,-0.91828 1.23117,-1.23118 1.245579,-1.23825 1.819526,-0.87593 1.635379,1.03235 4.635868,2.14998 6.88692,2.56522 1.217382,0.22458 2.011601,0.34903 2.600873,0.40773 0.342445,0.0342 0.675997,0.0823 0.741558,0.10748 0.221247,0.0849 0.121589,0.3781 -0.284737,0.83561 -0.222332,0.25032 -0.473466,0.5651 -0.558107,0.6997 -0.08465,0.1346 -0.241157,0.35245 -0.347781,0.48421 -0.323641,0.39991 -1.082696,1.96932 -1.275892,2.63808 -0.29608,1.02492 -0.307708,1.11563 -0.305406,2.39004 0.0017,0.928 0.04582,1.39328 0.184999,1.93838 0.237726,0.93109 0.601078,1.89088 0.822174,2.17196 0.09643,0.1226 0.175699,0.27035 0.175699,0.32814 0,0.0578 0.131242,0.22656 0.291971,0.37518 1.075904,0.99481 2.016205,1.29094 4.093805,1.29294 1.10179,8e-4 1.1036,0.001 1.19114,0.23151 0.0483,0.12686 0.0893,0.31881 0.0909,0.42685 0.002,0.10806 0.0812,0.35873 0.17674,0.55655 0.11751,0.24331 0.17443,0.55575 0.17673,0.96636 0.002,0.34264 0.0422,0.60719 0.093,0.60719 0.0562,0 0.0899,-0.54027 0.0899,-1.44074 0,-1.66917 -0.12886,-1.4753 1.21388,-1.83038 4.248516,-1.12348 9.421556,-4.65104 13.333556,-9.09298 0.52266,-0.59348 1.04437,-1.18016 1.15962,-1.3038 0.11524,-0.12364 0.63542,-0.801 1.156,-1.50482 0.52057,-0.70381 1.02236,-1.32002 1.11466,-1.36942 0.16935,-0.0906 1.24443,-0.002 3.64784,0.29921 0.59347,0.0745 1.34122,0.1634 1.6614,0.1974 0.65923,0.07 0.65025,0.0628 1.80092,1.42058 2.47605,2.92168 4.99099,4.38615 7.77782,4.52841 1.97273,0.10072 4.23834,-0.5988 5.30562,-1.63814 0.8708,-0.848 1.3533,-2.4203 1.2883,-4.19716 l -0.03,-0.81494 0.85472,-0.21032 c 0.46984,-0.11573 0.95536,-0.21246 1.07902,-0.21446 0.36139,-0.007 0.9083,-0.18542 0.85111,-0.27802 -0.0292,-0.0472 -0.64741,-0.0847 -1.39269,-0.0847 -1.5362,0 -1.59917,-0.0279 -1.7942,-0.79322 -0.40127,-1.57466 -1.00538,-3.09159 -1.90531,-4.78214 -0.57599,-1.08199 -2.30562,-3.65579 -2.9192,-4.34444 -0.34209,-0.38394 -0.23632,-0.48647 0.56741,-0.55087 3.97784,-0.31876 6.64665,-2.04078 8.13077,-5.24619 0.18972,-0.40975 0.40232,-1.04792 0.47232,-1.41853 0.11448,-0.606282 0.11143,-0.743662 -0.0284,-1.368382 -0.0855,-0.38187 -0.23858,-0.85585 -0.34004,-1.05368 -0.32072,-0.62538 -0.9666,-1.43137 -1.58439,-1.97714 -0.32848,-0.29018 -0.59688,-0.59335 -0.59688,-0.67335 0,-0.08 0.44509,-0.81875 0.9891,-1.64176 0.94486,-1.42937 1.08448,-1.68775 0.91261,-1.68775 -0.0736,0 -0.92911,0.86018 -2.04277,2.05414 -0.29269,0.31377 -0.59306,0.60288 -0.66766,0.64234 -0.0907,0.048 -0.35919,-0.0616 -0.8103,-0.33073 -2.29392,-1.36875 -5.56591,-2.40273 -8.92037,-2.81895 -1.29515,-0.1607 -1.30284,-0.18598 -0.40256,-1.36271 0.81327,-1.06302 1.09304,-1.486413 1.18804,-1.797822 0.0349,-0.114318 0.11528,-0.268433 0.17828,-0.342614 0.15627,-0.18406 0.63683,-1.628966 0.76687,-2.305802 0.20151,-1.048789 -0.0782,-3.842654 -0.42787,-4.276224 -0.052,-0.06449 -0.12302,-0.249812 -0.15761,-0.411861 -0.15384,-0.719297 -0.84527,-1.681562 -1.53893,-2.141988 -0.96598,-0.641178 -2.05791,-0.896612 -3.51658,-0.822174 -0.89804,0.04583 -0.94264,0.03985 -1.01803,-0.144693 -0.0879,-0.215103 -0.31654,-1.389975 -0.40514,-2.081527 -0.0818,-0.638487 -0.21005,-1.009565 -0.36948,-1.070734 -0.1011,-0.0388 -0.12175,-0.124249 -0.0786,-0.320911 0.0591,-0.26911 10e-4,-0.571394 -0.0972,-0.591695 z m 2.04276,11.233422 c 0.1855,-0.02372 0.44473,0.09944 0.67077,0.335381 0.21242,0.221691 0.25901,0.358105 0.29042,0.850593 0.0305,0.479332 -0.009,0.712118 -0.21343,1.273823 -0.13789,0.378066 -0.33478,0.820007 -0.4377,0.981853 -0.10292,0.16184 -0.21314,0.295873 -0.24494,0.298172 -0.11477,0.0076 -0.18161,-0.51354 -0.25941,-2.016929 -0.0631,-1.219227 -0.0558,-1.555346 0.0372,-1.648995 0.0415,-0.04176 0.0953,-0.06599 0.15708,-0.0739 z m -2.30528,0.101801 -0.0119,1.034047 c -0.0154,1.29285 -0.30366,4.77651 -0.40617,4.90978 -0.0423,0.055 -0.68659,0.1478 -1.44746,0.20877 -1.93325,0.15484 -4.15108,0.49441 -6.18205,0.94619 -0.97595,0.21711 -1.4167,0.33484 -2.9223,0.7798 -0.89052,0.26319 -1.42803,0.28168 -2.06655,0.0713 -0.2957,-0.0974 -0.56964,-0.20941 -0.60874,-0.24856 -0.0838,-0.0838 0.64269,-0.95484 1.30844,-1.5689 1.40375,-1.29477 2.94194,-2.386226 4.59921,-3.263364 0.52095,-0.275717 0.97039,-0.538584 0.99838,-0.583944 0.0281,-0.04539 0.10636,-0.08216 0.17416,-0.08216 0.10098,0 1.48721,-0.61217 2.03036,-0.896589 0.0777,-0.04067 0.42211,-0.181149 0.76481,-0.312123 1.84131,-0.703718 2.71632,-0.965139 3.28301,-0.980819 z m -30.838941,4.923217 c 0.517366,-0.0165 1.166487,0.16021 1.907376,0.53123 0.408014,0.20433 0.742069,0.40243 0.742069,0.4408 0,0.0384 -0.253132,0.0923 -0.562234,0.11937 -1.56119,0.13671 -3.081563,0.15271 -3.242697,0.0341 -0.156477,-0.11518 -0.155109,-0.13591 0.03824,-0.49816 0.214302,-0.40148 0.599879,-0.61085 1.117245,-0.62735 z m -0.730189,3.28249 c 0.64281,-0.004 2.057209,0.0981 3.919144,0.28783 0.46983,0.0479 1.21836,0.11342 1.66346,0.14573 l 0.80925,0.0589 0.31471,0.39429 c 0.92203,1.15492 1.43868,2.35638 1.43868,3.34605 0,0.90092 -0.17386,1.28402 -0.74983,1.65158 -0.65427,0.41752 -3.57644,2.617992 -3.78271,2.848402 v -5.3e-4 c -0.25578,0.28573 -0.621238,0.25109 -0.778768,-0.0739 -0.07075,-0.14594 -0.322284,-0.61797 -0.558623,-1.04904 -0.236341,-0.43106 -0.647816,-1.276962 -0.914672,-1.879982 -0.424294,-0.95877 -0.601491,-1.39913 -1.175639,-2.92024 -0.514242,-1.36245 -0.763765,-2.59909 -0.558623,-2.76933 0.03081,-0.0256 0.159351,-0.0385 0.373621,-0.0398 z m 10.500654,1.11621 c 0.44591,0.0103 1.25787,0.15473 1.469686,0.29352 0.27602,0.18086 0.25922,0.25793 -0.250126,1.15807 -0.37356,0.66017 -0.92488,1.32033 -1.10277,1.32033 -0.0545,0 -0.23653,0.10114 -0.40412,0.22479 -0.33312,0.24577 -0.41184,0.26832 -0.49144,0.13953 -0.029,-0.047 0.0285,-0.12902 0.12816,-0.18242 0.0997,-0.0533 0.34128,-0.24745 0.53692,-0.4315 0.53113,-0.49967 0.54891,-0.7946 0.10077,-1.68 -0.2339,-0.46209 -0.33123,-0.74681 -0.27492,-0.80305 0.0315,-0.0315 0.1392,-0.0427 0.28784,-0.0393 z m 16.622246,0.63458 c 0.0738,0.003 0.13153,0.0107 0.16795,0.0222 0.102,0.0324 0.36784,0.29591 0.59065,0.58549 0.55994,0.72769 0.73797,0.75517 1.72342,0.26924 0.54552,-0.26894 0.79439,-0.35024 0.86298,-0.28164 0.12894,0.12893 -0.0627,1.49763 -0.24959,1.78284 -0.0753,0.11494 -0.16606,0.20877 -0.20205,0.20877 -0.036,0 -0.47025,-0.22381 -0.96481,-0.49764 -0.97328,-0.53888 -2.70348,-1.39062 -2.82514,-1.39062 -0.0413,0 -0.1245,-0.0595 -0.185,-0.13229 -0.0605,-0.0729 -0.24737,-0.15815 -0.41548,-0.18965 -0.16813,-0.0316 -0.30593,-0.0901 -0.30593,-0.12971 0,-0.10997 1.28632,-0.27055 1.803,-0.24701 z m 6.51691,0.49816 c 0.18707,-0.007 0.62856,0.12782 1.79628,0.51987 2.39571,0.80432 3.2282,1.14494 5.26013,2.15129 1.46997,0.72803 1.77582,0.95033 1.65727,1.20406 -0.0701,0.15006 -0.5649,0.59432 -2.33165,2.093922 -0.0989,0.084 -0.57245,0.48005 -1.05212,0.88006 -0.47969,0.40001 -0.89698,0.76717 -0.92709,0.81597 -0.0302,0.0488 -0.1078,0.0889 -0.17259,0.0889 -0.1148,0 -0.95023,-0.6215 -1.22009,-0.90745 -0.29274,-0.31021 -1.62221,-1.32958 -3.29902,-2.529562 -0.32232,-0.23068 -0.50618,-0.55744 -0.43718,-0.77721 0.0254,-0.0809 0.10548,-0.57161 0.17778,-1.09089 0.234,-1.68033 0.34289,-2.29134 0.42839,-2.39934 0.0233,-0.0295 0.0575,-0.0473 0.11989,-0.0496 z m -14.19293,1.02837 c 0.32851,-0.0217 0.69787,0.0744 1.29759,0.3023 0.46419,0.17642 0.94502,0.35368 1.06866,0.39377 0.23226,0.0753 2.73557,1.15307 3.37189,1.4516 0.56601,0.26554 2.38591,1.24765 3.31815,1.790582 0.97802,0.56958 1.0208,0.65023 0.77464,1.48001 -0.0886,0.29861 -0.28761,1.00842 -0.44185,1.57718 -0.46662,1.72067 -1.64107,5.05488 -2.10788,5.9836 -0.0735,0.14624 -0.27859,0.57912 -0.45577,0.96222 l -0.32248,0.69659 -1.01182,0.50128 c -1.29753,0.64273 -2.62244,1.21354 -3.97236,1.71151 -1.12884,0.41643 -1.27297,0.44633 -1.49036,0.30593 -0.0742,-0.0479 -0.57994,-0.23489 -1.12396,-0.41547 -1.9402,-0.64406 -5.46713,-2.26631 -6.777876,-3.11714 -0.24529,-0.15922 -0.69247,-0.4412 -0.99322,-0.62682 -0.64132,-0.39583 -0.65875,-0.47371 -0.35502,-1.57511 1.11035,-4.02631 2.851286,-8.457912 3.513996,-8.945702 0.48272,-0.35528 4.35571,-2.13527 4.64623,-2.13527 0.0445,0 0.25726,-0.08 0.47284,-0.17777 0.20902,-0.0948 0.39148,-0.15026 0.5886,-0.16329 z m 24.51994,4.177512 c 0.0412,-0.002 0.0685,0.0225 0.0977,0.061 0.16241,0.21421 0.25907,0.79378 0.18708,1.12138 -0.0619,0.28183 -0.6339,0.87246 -1.12758,1.16427 -0.17311,0.10231 -0.56632,0.2705 -0.87385,0.37363 -0.55144,0.18492 -1.01441,0.2437 -1.01441,0.12867 0,-0.1287 0.50208,-0.70246 1.57664,-1.80145 0.7842,-0.802 1.031,-1.04235 1.15446,-1.04747 z m -35.172006,1.25782 c 0.14375,0.016 0.0865,0.28444 -0.13333,0.87435 -0.14975,0.40192 -0.40693,1.19601 -0.57154,1.76476 -0.1646,0.56873 -0.35859,1.21612 -0.43098,1.43866 -0.0724,0.22255 -0.15745,0.53592 -0.18914,0.69608 -0.0317,0.16019 -0.0923,0.3125 -0.13435,0.33849 -0.13245,0.0819 -0.18791,-0.27543 -0.16072,-1.03559 0.0258,-0.72143 0.0214,-0.73876 -0.24339,-0.95241 -0.14838,-0.11968 -0.43135,-0.26174 -0.62891,-0.31573 -0.19754,-0.054 -0.51962,-0.18007 -0.71571,-0.2801 l -0.35657,-0.1819 0.26613,-0.21704 c 0.23205,-0.18917 0.99829,-0.70644 2.81482,-1.90065 0.23885,-0.15702 0.39744,-0.23852 0.48369,-0.22892 z m 23.354646,1.45984 c 0.0951,-0.0233 0.13399,0.25944 0.11317,0.83044 -0.0251,0.68807 -0.0162,0.72487 0.2403,0.98134 0.14655,0.14657 0.3298,0.26665 0.40721,0.26665 0.19698,0 1.31206,0.45455 1.31206,0.53485 0,0.10319 -2.69404,1.98792 -3.31505,2.31925 -0.11693,0.0624 -0.23233,0.11316 -0.25683,0.11316 -0.10013,0 0.0686,-0.64847 0.45114,-1.73168 0.22291,-0.63111 0.45504,-1.35994 0.51574,-1.61902 0.0607,-0.25909 0.15186,-0.52324 0.20256,-0.58704 0.0507,-0.0638 0.12505,-0.32154 0.16485,-0.57309 0.0398,-0.25155 0.0937,-0.47922 0.1204,-0.50591 0.0159,-0.0159 0.0309,-0.0256 0.0444,-0.029 z m -34.177244,3.2515 c 0.120214,-0.007 0.192236,0.0148 0.192236,0.0734 0,0.12891 -0.498496,0.71881 -1.5875,1.87844 -0.568947,0.60584 -1.065747,1.10122 -1.103807,1.10122 -0.117041,0 -0.370676,-0.65656 -0.382408,-0.9896 -0.01267,-0.35944 0.172104,-0.76385 0.479558,-1.04903 0.449558,-0.417 1.880989,-0.98418 2.401921,-1.01441 z m 3.567741,0.35552 c 0.06012,0 0.358804,0.22991 1.041797,0.80202 1.40349,1.17566 1.28527,1.08369 2.98845,2.32906 0.42744,0.31253 0.81521,0.63968 0.86196,0.72708 0.057,0.1065 0.013,0.65958 -0.13384,1.67949 -0.1204,0.8365 -0.21951,1.66803 -0.22014,1.84743 -0.002,0.54635 -0.17727,0.57944 -1.30483,0.24649 -2.754731,-0.81339 -7.868255,-3.17728 -7.868255,-3.6375 0,-0.16738 0.382344,-0.52388 2.190563,-2.04327 1.842532,-1.54825 2.346836,-1.9508 2.444295,-1.9508 z m 34.778753,1.08004 c 0.21026,8e-4 0.2776,0.10274 1.03663,1.57511 1.45968,2.83143 2.89392,6.72117 2.68201,7.27344 -0.0427,0.11143 -0.17839,0.13979 -0.6196,0.12921 -0.31065,-0.007 -0.66597,-0.0256 -0.78961,-0.0398 -0.12364,-0.0142 -1.29702,-0.11256 -2.60759,-0.2186 -3.15112,-0.25492 -2.90285,-0.20346 -3.29129,-0.67747 -0.94342,-1.15133 -1.55977,-2.75452 -1.4428,-3.75326 0.0386,-0.32918 0.0195,-0.44375 -0.0806,-0.48214 -0.19749,-0.0758 -0.15759,-0.20078 0.047,-0.14728 0.13012,0.034 0.20123,-0.0133 0.26304,-0.1757 0.0476,-0.1252 0.33336,-0.37947 0.6537,-0.58188 0.31293,-0.19772 1.33029,-0.93156 2.26084,-1.63091 0.97929,-0.73596 1.77458,-1.27117 1.88826,-1.27072 z m -6.22493,4.31498 c 0.16189,0 0.17523,0.0221 0.0816,0.13487 -0.0616,0.0743 -0.16755,0.13489 -0.23566,0.13489 -0.0681,0 -0.12402,0.0607 -0.12402,0.13487 0,0.0742 -0.0378,0.13487 -0.0842,0.13487 -0.0464,0 -0.21738,0.12138 -0.37982,0.26975 -0.16244,0.14837 -0.32038,0.26975 -0.35088,0.26975 -0.0798,0 -0.26407,0.42989 -0.26407,0.61599 0,0.0868 0.16281,0.49452 0.36174,0.9059 0.28071,0.58048 0.33848,0.77525 0.2589,0.87177 0,0 0,5.3e-4 0,5.3e-4 -0.11267,0.13556 -0.2601,0.14006 -0.93535,0.0284 -1.38408,-0.22883 -1.38203,-0.22527 -0.71778,-1.46916 0.48916,-0.916 0.82883,-1.29811 1.28002,-1.44073 0.11122,-0.0352 0.20206,-0.0998 0.20206,-0.14367 0,-0.0439 0.13883,-0.10607 0.30851,-0.13797 0.16967,-0.0318 0.33048,-0.11457 0.35708,-0.18397 0.0266,-0.0693 0.13532,-0.12609 0.24185,-0.12609 z m -20.850936,0.2713 c 0.20729,-0.0122 0.61232,0.16007 1.27796,0.53795 0.52268,0.29674 0.9695,0.53951 0.99271,0.53951 0.0232,0 0.538986,0.23872 1.146706,0.53019 0.60771,0.29147 1.19612,0.55738 1.30741,0.59067 0.11131,0.0333 0.20205,0.0957 0.20205,0.13849 0,0.0992 -0.17483,0.1508 -0.89917,0.26562 -0.98608,0.15631 -1.29781,0.0968 -1.554946,-0.29559 -0.25062,-0.3825 -0.80061,-0.86972 -0.98185,-0.86972 -0.0944,0 -0.51558,0.16186 -0.93586,0.35967 -0.82406,0.38788 -0.89325,0.40707 -0.97876,0.26873 -0.0557,-0.0901 0.19157,-1.84944 0.28009,-1.99266 0.0274,-0.0444 0.0746,-0.0688 0.14366,-0.0729 z m 10.676346,4.32326 0.51988,0.13435 c 1.30435,0.33707 1.21671,0.29428 1.15031,0.55966 -0.0755,0.30169 -1.51285,1.73101 -2.65358,2.63861 -1.91208,1.52132 -3.17935,2.26708 -5.80016,3.41373 -0.79129,0.3462 -1.580286,0.68426 -1.753386,0.75087 -1.13295,0.43638 -2.13675,0.76187 -2.8944,0.93844 -0.67031,0.15621 -0.85426,0.13067 -0.91881,-0.12662 -0.0601,-0.23953 0.006,-1.1044 0.31885,-4.16047 0.18309,-1.78904 0.2079,-1.91557 0.38395,-1.95336 0.10352,-0.0223 0.73433,-0.0851 1.40198,-0.14005 1.05347,-0.0867 3.002816,-0.35263 4.565106,-0.62269 0.89562,-0.15483 2.8555,-0.62785 4.26692,-1.02992 z m 19.45929,2.04069 c 0.37216,0.002 0.63071,0.0142 0.66558,0.0419 0.154,0.122 0.14301,0.21766 -0.0801,0.67851 -0.14342,0.29627 -0.28757,0.44114 -0.56224,0.56586 -0.20306,0.0922 -0.51058,0.16581 -0.68367,0.16382 -0.65647,-0.008 -1.62201,-0.37088 -2.55385,-0.95912 -0.30067,-0.18981 -0.33123,-0.23577 -0.20309,-0.30748 0.16477,-0.0922 2.30091,-0.18799 3.41737,-0.18345 z m -33.814996,2.29083 c 0.057,0.019 0.13212,0.17314 0.16691,0.3426 0.0918,0.44734 0.26986,3.67578 0.20826,3.77548 -0.0905,0.14631 -0.61407,0.091 -0.92346,-0.0977 -0.34011,-0.20737 -0.6413,-0.79077 -0.6444,-1.24696 -0.005,-0.70133 0.92491,-2.86277 1.19269,-2.77347 z"
       transform="matrix(0.94270537,0,0,0.94270537,6.2568474,5.8109596)" />
    <path
       id="path2796"
       style="fill:url(#linearGradient3656);fill-opacity:1;stroke:none;stroke-width:0.0847678;stroke-opacity:1"
       d="m 118.25917,79.589749 c -2.04663,0.648374 -4.5812,1.827006 -5.81617,2.76656 -0.16317,0.124146 -0.54074,0.389697 -0.83887,0.589948 -1.05883,0.7112 -3.02325,2.366628 -4.29575,3.620059 -1.51997,1.497186 -2.66935,2.838366 -4.09357,4.776569 -0.34343,0.467346 -0.6722,0.868039 -0.73074,0.890521 -0.1,0.03836 -1.16829,-0.08329 -2.41727,-0.275241 -0.303027,-0.04658 -1.046821,-0.127683 -1.652912,-0.180249 -0.606088,-0.05261 -1.20183,-0.133342 -1.32409,-0.17976 -0.122263,-0.04644 -0.460078,-0.386606 -0.750709,-0.75558 -0.707754,-0.898544 -2.180589,-2.366407 -2.920016,-2.910274 -0.709909,-0.522142 -1.754196,-1.132764 -2.070415,-1.210585 -0.123689,-0.03045 -0.300868,-0.102691 -0.39411,-0.160761 -0.09324,-0.05808 -0.49375,-0.191506 -0.890035,-0.296678 -1.098249,-0.291482 -2.701969,-0.277304 -3.8841,0.03459 -0.481124,0.126942 -0.938842,0.263205 -1.017181,0.302523 -0.07835,0.03933 -0.385334,0.180412 -0.682021,0.313732 -1.492382,0.670631 -1.947438,2.730554 -2.214126,4.329359 -0.163477,0.980053 0.16175,1.991901 0.422373,2.950705 0.408487,1.502778 0.940471,2.795284 1.770328,4.323513 0.520144,0.95786 1.738872,2.76356 2.628695,3.89579 0.204731,0.2605 0.347232,0.49849 0.317139,0.52856 -0.03005,0.0301 -0.44544,0.0842 -0.923161,0.12033 -3.092216,0.23374 -5.355645,1.50386 -6.867445,3.8534 -1.229043,1.91011 -1.40108,3.50076 -0.537821,4.96949 2.316796,3.29396 5.933534,4.66514 9.758233,5.40598 1.147632,0.21171 1.896347,0.32903 2.451857,0.38437 0.322824,0.0322 0.637266,0.0776 0.69907,0.10132 0.208571,0.08 0.114623,0.35643 -0.268423,0.78773 -0.209593,0.23598 -0.446339,0.53272 -0.52613,0.65961 -0.0798,0.12689 -0.22734,0.33226 -0.327855,0.45647 -0.305098,0.377 -1.020663,1.85649 -1.20279,2.48693 -0.279117,0.9662 -0.290078,1.0517 -0.287908,2.25311 0.0016,0.87483 0.04319,1.31345 0.174399,1.82732 0.224106,0.87774 0.56664,1.78254 0.775068,2.04751 0.0909,0.11558 0.165633,0.25487 0.165633,0.30934 0,0.0545 0.123722,0.21358 0.275242,0.35369 1.014261,0.93781 2.513899,1.11908 3.859255,1.21886 0.962232,0.0714 1.961946,-0.0987 2.858641,-0.45501 4.713065,-1.87253 8.881735,-4.38457 12.569605,-8.572 0.49271,-0.55947 0.98453,-1.11254 1.09318,-1.2291 0.10864,-0.11655 0.59901,-0.7551 1.08977,-1.4186 0.49074,-0.66349 0.96378,-1.24439 1.05079,-1.29096 0.15965,-0.0854 1.17313,-0.002 3.43884,0.28207 0.55947,0.0702 1.26438,0.15404 1.56621,0.18609 0.62146,0.066 0.61299,0.0592 1.69774,1.33919 2.33418,2.75428 4.70503,4.13484 7.33219,4.26895 1.8597,0.095 3.99551,-0.5645 5.00164,-1.54428 0.8209,-0.79941 1.27576,-2.28163 1.21448,-3.95669 0,0 0.008,-0.5146 -0.0283,-0.76824 -0.073,-0.5073 -0.22065,-1.00268 -0.379,-1.49013 -0.49978,-1.53845 -0.94778,-2.91445 -1.79615,-4.50815 -0.54298,-1.01999 -2.17352,-3.44633 -2.75194,-4.09552 -0.32249,-0.36193 -0.22278,-0.4586 0.5349,-0.51931 3.74993,-0.30049 6.26584,-1.92384 7.66492,-4.94562 0.17885,-0.38627 0.37927,-0.98788 0.44526,-1.33725 0.10792,-0.571534 0.10504,-0.701048 -0.0268,-1.289973 -0.0806,-0.359992 -0.22491,-0.806817 -0.32055,-0.993312 -0.30234,-0.589549 -0.9197,-1.312051 -1.49362,-1.863861 -0.62407,-0.600028 -1.31754,-1.150316 -2.08893,-1.543312 -2.61938,-1.33448 -5.24702,-2.265068 -8.40929,-2.657437 -1.22094,-0.151493 -1.22819,-0.175328 -0.37949,-1.284632 0.76667,-1.002114 1.03041,-1.401252 1.11997,-1.694819 0.0329,-0.107769 0.10867,-0.253054 0.16806,-0.322984 0.14732,-0.173515 0.60036,-1.535635 0.72294,-2.173692 0.18996,-0.988699 -0.0737,-3.622491 -0.40336,-4.03122 -0.049,-0.06079 -0.11597,-0.235499 -0.14858,-0.388263 -0.14502,-0.678085 -0.79684,-1.585218 -1.45076,-2.019264 -0.91063,-0.604442 -2.18078,-0.740989 -3.3151,-0.775068 -0.99414,-0.02987 -1.9928,0.203263 -2.94094,0.503636 z m 3.01115,6.117677 c 0.17486,-0.02236 0.41925,0.09374 0.63233,0.316165 0.20026,0.20899 0.24418,0.337588 0.27379,0.801859 0.0287,0.451869 -0.008,0.671317 -0.2012,1.20084 -0.12999,0.356404 -0.3156,0.773025 -0.41262,0.925598 -0.097,0.152567 -0.20093,0.278921 -0.23091,0.281088 -0.1082,0.0072 -0.17121,-0.484117 -0.24456,-1.90137 -0.0595,-1.149372 -0.0526,-1.466233 0.0351,-1.554516 0.0391,-0.03937 0.0898,-0.06221 0.14809,-0.06967 z m -2.1732,0.09597 -0.0112,0.974802 c -0.0145,1.218776 -0.28626,4.502844 -0.38289,4.628474 -0.0399,0.05185 -0.64726,0.139334 -1.36453,0.19681 -1.82249,0.145971 -3.91325,0.46608 -5.82785,0.891984 -0.92004,0.204669 -1.33554,0.315651 -2.75487,0.73512 -0.8395,0.248107 -1.34621,0.265534 -1.94815,0.06723 -0.27876,-0.09185 -0.537,-0.197417 -0.57386,-0.234322 -0.079,-0.07897 0.60586,-0.900135 1.23347,-1.479008 1.32332,-1.220592 2.77338,-2.249512 4.3357,-3.076394 0.4911,-0.25992 0.91479,-0.507726 0.94118,-0.550487 0.0265,-0.04279 0.10026,-0.07745 0.16418,-0.07745 0.0952,0 1.402,-0.577096 1.91403,-0.845219 0.0733,-0.03834 0.39793,-0.170771 0.72099,-0.29424 1.73581,-0.663399 2.56069,-0.909842 3.09491,-0.924624 z m -29.072025,4.641142 c 0.487724,-0.01555 1.099653,0.151029 1.798093,0.500797 0.384637,0.192617 0.699558,0.379372 0.699558,0.415542 0,0.03616 -0.238634,0.08697 -0.530026,0.112536 -1.471742,0.128875 -2.905006,0.143957 -3.056908,0.03215 -0.147512,-0.108585 -0.146222,-0.128129 0.03605,-0.469618 0.202024,-0.378479 0.565509,-0.575856 1.053233,-0.591407 z m -0.688353,3.094418 c 0.60598,-0.0037 1.939342,0.09249 3.694595,0.271346 0.442912,0.04512 1.148557,0.106919 1.568157,0.137379 l 0.762886,0.05553 0.296679,0.371702 c 0.869197,1.088747 1.356244,2.221372 1.356244,3.154338 0,0.849304 -0.163898,1.210454 -0.706865,1.556952 -0.616786,0.393599 -3.371528,2.467997 -3.565985,2.685207 v -4.9e-4 c -0.241125,0.26936 -0.58564,0.2367 -0.734145,-0.0697 -0.0667,-0.13758 -0.303818,-0.58257 -0.526616,-0.98894 -0.2228,-0.40636 -0.6107,-1.203794 -0.862267,-1.772264 -0.399984,-0.903836 -0.567028,-1.318962 -1.108281,-2.752921 -0.484779,-1.284397 -0.720005,-2.450181 -0.526617,-2.61067 0.02904,-0.02411 0.150221,-0.0363 0.352215,-0.03751 z m 9.899021,1.052259 c 0.42036,0.0097 1.185787,0.14587 1.385457,0.276703 0.26021,0.170499 0.24437,0.243151 -0.23578,1.091717 -0.35216,0.622348 -0.871877,1.244686 -1.039577,1.244686 -0.0514,0 -0.222973,0.09535 -0.380961,0.211914 -0.314037,0.231687 -0.388246,0.252943 -0.463285,0.131531 -0.02737,-0.04427 0.02686,-0.121624 0.120816,-0.171966 0.09395,-0.05028 0.321722,-0.233271 0.506154,-0.406775 0.500706,-0.471043 0.517466,-0.749076 0.095,-1.583746 -0.220492,-0.435615 -0.312244,-0.704025 -0.259163,-0.757043 0.0297,-0.0297 0.131225,-0.04026 0.271343,-0.03702 z m 15.669867,0.598225 c 0.0696,0.0032 0.12399,0.01005 0.15833,0.02095 0.0961,0.03052 0.34676,0.278958 0.55681,0.551949 0.52786,0.685995 0.69569,0.711896 1.62467,0.253808 0.51427,-0.253532 0.74888,-0.33017 0.81355,-0.265502 0.12154,0.121544 -0.0591,1.411823 -0.23529,1.680689 -0.071,0.108356 -0.15655,0.196814 -0.19049,0.196814 -0.0339,0 -0.4433,-0.21099 -0.90952,-0.469132 -0.91751,-0.508004 -2.54859,-1.310938 -2.66328,-1.310938 -0.0389,0 -0.11737,-0.05608 -0.1744,-0.124713 -0.057,-0.0687 -0.23319,-0.149091 -0.39168,-0.178787 -0.15849,-0.02974 -0.28839,-0.08495 -0.28839,-0.122275 0,-0.10367 1.21261,-0.255051 1.69969,-0.232863 z m 6.14352,0.469621 c 0.17637,-0.0066 0.59255,0.120495 1.69337,0.490079 2.25845,0.758237 3.04324,1.07934 4.95876,2.028032 1.38575,0.686318 1.67407,0.895884 1.56231,1.135075 -0.0661,0.141464 -0.53253,0.560271 -2.19805,1.973953 -0.0932,0.0792 -0.53965,0.45254 -0.99185,0.82963 -0.4522,0.3771 -0.84558,0.72321 -0.87396,0.76922 -0.0285,0.046 -0.10163,0.0838 -0.16271,0.0838 -0.10822,0 -0.89579,-0.58588 -1.15018,-0.85544 -0.27597,-0.29245 -1.52928,-1.25341 -3.11001,-2.384635 -0.30386,-0.217463 -0.47717,-0.525507 -0.41213,-0.732684 0.0239,-0.07624 0.0994,-0.538858 0.16759,-1.028386 0.2206,-1.584057 0.32324,-2.160055 0.40384,-2.261867 0.022,-0.02781 0.0542,-0.04458 0.11302,-0.04677 z m -13.37975,0.969443 c 0.30969,-0.02048 0.6579,0.0701 1.22326,0.284983 0.43759,0.166314 0.89087,0.333413 1.00743,0.371214 0.21895,0.07101 2.57883,1.086998 3.1787,1.368423 0.53358,0.250327 2.2492,1.176174 3.12804,1.687986 0.92198,0.53695 0.96231,0.61298 0.73024,1.39522 -0.0835,0.28149 -0.27113,0.95065 -0.41652,1.48681 -0.4399,1.62209 -1.54705,4.76527 -1.98711,5.64078 -0.0693,0.13786 -0.26263,0.54593 -0.42967,0.90709 l -0.30399,0.65668 -0.95385,0.47255 c -1.22319,0.60591 -2.4722,1.14402 -3.74477,1.61346 -1.06417,0.39257 -1.20003,0.42076 -1.40497,0.28839 -0.0699,-0.0451 -0.54671,-0.22142 -1.05956,-0.39166 -1.82904,-0.60715 -5.15391,-2.13646 -6.38954,-2.93854 -0.23124,-0.1501 -0.652787,-0.41592 -0.936307,-0.59092 -0.604571,-0.37315 -0.621,-0.44656 -0.334674,-1.48485 1.046721,-3.79563 2.687901,-7.973324 3.312651,-8.433164 0.45505,-0.334924 4.10615,-2.01293 4.38003,-2.01293 0.0419,0 0.24251,-0.07539 0.44575,-0.167583 0.19704,-0.08942 0.36905,-0.14165 0.55486,-0.153939 z m 23.11509,3.938166 c 0.0388,-0.002 0.0646,0.0212 0.0921,0.0575 0.15311,0.20193 0.24423,0.74829 0.17636,1.05714 -0.0584,0.26568 -0.59759,0.82247 -1.06298,1.09756 -0.16318,0.0965 -0.53386,0.255 -0.82378,0.35221 -0.51985,0.17434 -0.95629,0.22974 -0.95629,0.1213 0,-0.12131 0.47332,-0.6622 1.48631,-1.69823 0.73926,-0.75606 0.97193,-0.98263 1.08831,-0.98747 z m -33.156831,1.18575 c 0.135512,0.0151 0.08153,0.26814 -0.125687,0.82426 -0.141174,0.37889 -0.383614,1.12748 -0.538796,1.66364 -0.155174,0.53615 -0.338044,1.14644 -0.406287,1.35624 -0.06826,0.2098 -0.148425,0.50522 -0.1783,0.6562 -0.02991,0.151 -0.08697,0.29458 -0.12666,0.3191 -0.124858,0.0772 -0.177139,-0.25965 -0.151506,-0.97627 0.02432,-0.68009 0.02022,-0.69642 -0.22945,-0.89783 -0.139872,-0.11283 -0.406636,-0.24675 -0.592871,-0.29765 -0.186225,-0.0509 -0.489854,-0.16975 -0.67471,-0.26405 l -0.336139,-0.17147 0.250886,-0.20461 c 0.218758,-0.17833 0.94109,-0.66596 2.653541,-1.79176 0.22517,-0.14802 0.374672,-0.22485 0.455979,-0.2158 z m 22.016541,1.3762 c 0.0896,-0.022 0.12632,0.24458 0.10669,0.78286 -0.0237,0.64865 -0.0153,0.68334 0.22652,0.92512 0.13816,0.13817 0.31091,0.25137 0.38388,0.25137 0.18569,0 1.2369,0.42851 1.2369,0.50421 0,0.0973 -2.5397,1.87402 -3.12512,2.18636 -0.11023,0.0588 -0.21902,0.10668 -0.24211,0.10668 -0.0944,0 0.0647,-0.61131 0.42529,-1.63246 0.21013,-0.59495 0.42896,-1.28202 0.48618,-1.52626 0.0572,-0.24425 0.14317,-0.49326 0.19096,-0.55341 0.0478,-0.0601 0.11789,-0.30311 0.15541,-0.54025 0.0375,-0.23714 0.0883,-0.45176 0.1135,-0.47692 0.015,-0.015 0.0291,-0.0241 0.0419,-0.0273 z m -32.21906,3.0652 c 0.113326,-0.007 0.181222,0.0139 0.181222,0.0692 0,0.12152 -0.469935,0.67762 -1.496545,1.77081 -0.536349,0.57113 -1.004685,1.03813 -1.040565,1.03813 -0.110335,0 -0.349438,-0.61895 -0.360498,-0.9329 -0.01194,-0.33885 0.162244,-0.72009 0.452082,-0.98893 0.423801,-0.39311 1.773218,-0.92779 2.264304,-0.95629 z m 3.363328,0.33516 c 0.05668,0 0.338246,0.21673 0.982107,0.75607 1.323078,1.1083 1.211633,1.0216 2.817228,2.19562 0.402947,0.29462 0.768506,0.60303 0.812576,0.68542 0.05373,0.1004 0.01223,0.62179 -0.126173,1.58326 -0.113501,0.78858 -0.206937,1.57246 -0.207528,1.74159 -0.0018,0.51504 -0.167115,0.54623 -1.230071,0.23236 -2.596898,-0.76678 -7.417444,-2.99525 -7.417444,-3.42909 0,-0.15779 0.360438,-0.49386 2.065055,-1.92621 1.736964,-1.45953 2.212374,-1.83902 2.30425,-1.83902 z m 32.786112,1.01816 c 0.19821,7.5e-4 0.26168,0.0969 0.97723,1.48486 1.37605,2.66921 2.72812,6.33609 2.52835,6.85672 -0.0403,0.10503 -0.16817,0.13178 -0.58411,0.12179 -0.29285,-0.007 -0.62781,-0.0241 -0.74437,-0.0375 -0.11656,-0.0134 -1.2227,-0.10611 -2.45819,-0.20606 -2.97057,-0.24033 -2.73652,-0.1918 -3.10271,-0.63867 -0.88937,-1.08536 -1.4704,-2.59669 -1.36013,-3.53821 0.0364,-0.31032 0.0184,-0.41832 -0.076,-0.45452 -0.18619,-0.0715 -0.14857,-0.18927 0.0443,-0.13884 0.12267,0.032 0.1897,-0.0125 0.24796,-0.16563 0.0449,-0.11803 0.31427,-0.35773 0.61626,-0.54854 0.295,-0.1864 1.25407,-0.87819 2.1313,-1.53746 0.92319,-0.6938 1.6729,-1.19834 1.78008,-1.19792 z m -5.86829,4.06776 c 0.15263,0 0.1652,0.0208 0.0769,0.12714 -0.0581,0.07 -0.15795,0.12715 -0.22215,0.12715 -0.0642,0 -0.11692,0.0572 -0.11692,0.12715 0,0.0699 -0.0356,0.12714 -0.0794,0.12714 -0.0437,0 -0.20493,0.11443 -0.35806,0.2543 -0.15313,0.13987 -0.30202,0.25429 -0.33078,0.25429 -0.0752,0 -0.24894,0.40526 -0.24894,0.5807 0,0.0818 0.15349,0.46619 0.34102,0.85399 0.26462,0.54723 0.31908,0.73084 0.24406,0.82183 v 4.8e-4 c -0.10621,0.12779 -0.24519,0.13204 -0.88176,0.0268 -1.30477,-0.21572 -1.30284,-0.21236 -0.67665,-1.38498 0.46113,-0.86352 0.78134,-1.22374 1.20668,-1.35818 0.10485,-0.0332 0.19048,-0.0941 0.19048,-0.13544 0,-0.0414 0.13088,-0.1 0.29084,-0.13007 0.15995,-0.03 0.31154,-0.108 0.33662,-0.17343 0.0251,-0.0653 0.12757,-0.11886 0.22799,-0.11886 z m -19.656268,0.25575 c 0.195411,-0.0115 0.57724,0.15089 1.204741,0.50713 0.49273,0.27974 0.913937,0.5086 0.935817,0.5086 0.0219,0 0.5081,0.22504 1.081,0.49981 0.57289,0.27477 1.1276,0.52544 1.2325,0.55683 0.10494,0.0314 0.19048,0.0902 0.19048,0.13055 0,0.0935 -0.16482,0.14216 -0.84766,0.25041 -0.92958,0.14735 -1.22345,0.0913 -1.46585,-0.27866 -0.23626,-0.36058 -0.754717,-0.81989 -0.925577,-0.81989 -0.0889,0 -0.486039,0.15258 -0.882244,0.33906 -0.776844,0.36566 -0.842073,0.38374 -0.922675,0.25333 -0.05252,-0.0849 0.180591,-1.74347 0.26404,-1.87848 0.02586,-0.0419 0.0703,-0.0649 0.135428,-0.0687 z m 10.064638,4.07555 0.49009,0.12666 c 1.22962,0.31776 1.147,0.27742 1.08441,0.5276 -0.0712,0.2844 -1.42617,1.63182 -2.50156,2.48742 -1.80251,1.43416 -2.99718,2.13719 -5.46784,3.21815 -0.74596,0.32637 -1.48974,0.64506 -1.65292,0.70784 -1.068023,0.41138 -2.014309,0.71823 -2.728553,0.88467 -0.631905,0.14726 -0.805312,0.1232 -0.866165,-0.11935 -0.05667,-0.22581 0.0058,-1.04113 0.300577,-3.9221 0.172606,-1.68654 0.195992,-1.80582 0.361956,-1.84144 0.09759,-0.021 0.692254,-0.0802 1.321656,-0.13203 0.993112,-0.0817 2.830749,-0.33243 4.303529,-0.58702 0.84431,-0.14595 2.6919,-0.59187 4.02245,-0.9709 z m 18.34437,1.92378 c 0.35084,0.002 0.59458,0.0134 0.62745,0.0395 0.14518,0.11501 0.13482,0.20519 -0.0755,0.63964 -0.1352,0.27929 -0.27109,0.41586 -0.53002,0.53343 -0.19143,0.0869 -0.48133,0.15631 -0.6445,0.15443 -0.61886,-0.008 -1.52908,-0.34962 -2.40753,-0.90416 -0.28345,-0.17893 -0.31225,-0.22226 -0.19145,-0.28986 0.15532,-0.0869 2.16907,-0.17722 3.22156,-0.17294 z m -31.87756,2.15957 c 0.05375,0.0179 0.124545,0.16323 0.15735,0.32298 0.08653,0.42171 0.254394,3.46518 0.196324,3.55917 -0.08527,0.13792 -0.578886,0.0858 -0.870548,-0.0921 -0.320627,-0.19549 -0.604562,-0.74546 -0.607485,-1.17551 -0.0042,-0.66115 0.871919,-2.69875 1.124359,-2.61457 z"
       sodipodi:nodetypes="asssscscsssssssssaassccsccccsssssssscaasssccsscscaasssssssaassscsscsaaccccscssccccscssscsscscsscssscssscscccssccsssssccsssssscsssssssscsssssccsssssscscsssccssssssssscscccscsssssscsccscsssccssssccssssccssccssssscscsscsssssssssssssscsssssssssscccssssssssssssssccsscsccssssssssssssccsscsccscsscccsccccsscssccsccccss" />
  </g>
  <g
     inkscape:groupmode="layer"
     id="layer2"
     inkscape:label="Layer 2"
     style="display:inline"
     transform="translate(-70.159841,-66.252609)" />
  <g
     inkscape:label="Layer 1"
     inkscape:groupmode="layer"
     id="layer1"
     style="display:inline"
     transform="translate(-70.159841,-66.252609)">
    <path
       style="fill:#ff0000;stroke-width:0.261963"
       id="path897"
       d="m 53.022774,38.336182 a 20.640617,19.449812 0 0 1 -6.2e-5,0.04761 z"
       sodipodi:type="arc"
       sodipodi:arc-type="chord"
       sodipodi:open="true"
       sodipodi:start="0"
       sodipodi:end="0.0024479814"
       sodipodi:ry="19.449812"
       sodipodi:rx="20.640617"
       sodipodi:cy="38.336182"
       sodipodi:cx="32.382156" />
  </g>
  <g
     inkscape:groupmode="layer"
     id="layer6"
     inkscape:label="Layer 4"
     transform="translate(-70.159841,-66.252609)" />
</svg>
